<?xml version="1.0" standalone="no"?>
<!DOCTYPE svg PUBLIC "-//W3C//DTD SVG 20010904//EN"
 "http://www.w3.org/TR/2001/REC-SVG-20010904/DTD/svg10.dtd">
<svg version="1.0" xmlns="http://www.w3.org/2000/svg"
 width="512.000000pt" height="512.000000pt" viewBox="0 0 512.000000 512.000000"
 preserveAspectRatio="xMidYMid meet">

<g transform="translate(0.000000,512.000000) scale(0.100000,-0.100000)"
fill="#000000" stroke="none">
<path d="M381 5100 c-91 -24 -149 -57 -221 -126 -72 -69 -115 -142 -140 -238
-20 -78 -20 -106 -20 -2176 0 -2070 0 -2098 20 -2176 25 -96 68 -169 140 -238
73 -70 131 -102 225 -126 77 -20 111 -20 2175 -20 2070 0 2098 0 2176 20 96
25 169 68 238 140 70 73 102 131 126 225 20 77 20 111 20 2175 0 2064 0 2098
-20 2175 -24 94 -56 152 -126 225 -69 72 -142 115 -238 140 -78 20 -105 20
-2180 19 -2045 0 -2103 -1 -2175 -19z m1224 -1046 c206 -20 609 -15 839 11 82
9 163 15 180 13 l31 -3 -48 -51 -48 -52 -97 -4 c-84 -3 -104 -8 -152 -33 -129
-70 -165 -198 -200 -715 -17 -257 -20 -314 -30 -600 -26 -714 -56 -983 -129
-1191 -71 -201 -201 -323 -396 -375 -86 -23 -368 -26 -485 -5 -139 24 -370 89
-393 110 -11 11 11 63 34 78 10 8 26 27 34 43 20 39 67 235 95 398 20 109 26
131 39 128 9 -3 29 -8 45 -12 26 -6 28 -9 22 -43 -3 -20 -11 -78 -18 -128 -21
-167 17 -321 93 -387 48 -41 97 -56 182 -56 155 0 274 74 342 213 63 129 95
294 124 647 57 676 91 1484 72 1678 -13 131 -31 184 -73 213 -39 28 -140 40
-247 29 -47 -5 -86 -8 -88 -7 -1 2 14 31 33 65 26 46 40 62 52 58 9 -3 94 -13
187 -22z m1790 0 c207 -20 611 -15 839 10 82 10 163 16 179 14 l31 -3 -45 -51
-44 -51 -100 -4 c-87 -4 -107 -8 -153 -34 -84 -46 -134 -136 -161 -290 -25
-142 -52 -546 -71 -1050 -36 -966 -85 -1213 -274 -1401 -78 -77 -145 -114
-255 -141 -82 -21 -357 -23 -476 -4 -142 22 -390 94 -394 114 -5 28 3 50 25
70 14 12 32 34 40 49 22 42 69 238 94 388 12 74 24 136 25 138 2 2 22 -2 45
-9 41 -12 42 -14 36 -48 -35 -203 -29 -334 20 -437 45 -95 114 -134 237 -134
208 0 338 123 401 380 41 168 66 406 101 960 31 495 38 664 39 945 1 358 -10
426 -79 471 -35 23 -145 34 -244 24 -47 -5 -86 -8 -88 -7 -1 2 14 31 33 65 26
46 40 62 52 58 9 -3 94 -13 187 -22z"/>
</g>
</svg>
